<svg width="632" height="247" viewBox="0 0 632 247" fill="none" xmlns="http://www.w3.org/2000/svg">
<path d="M47.1671 206.674L46.5379 206.235L45.6953 207.441H47.1671V206.674ZM201.866 206.674V207.441H202.634V206.674H201.866ZM201.866 179.279H202.634V178.512H201.866V179.279ZM163.46 179.279V178.512H163.269L163.101 178.601L163.46 179.279ZM158.894 181.696V182.463H159.085L159.253 182.374L158.894 181.696ZM93.6306 181.696L92.9967 181.263L92.1772 182.463H93.6306V181.696ZM141.705 111.329H142.473V108.846L141.072 110.897L141.705 111.329ZM141.705 192.439L142.352 192.851L142.473 192.662V192.439H141.705ZM139.825 195.393L139.178 194.981L139.058 195.17V195.393H139.825ZM139.825 242.663H139.058V243.43H139.825V242.663ZM172.323 242.663V243.43H173.09V242.663H172.323ZM172.323 54.6602H173.09V53.8928H172.323V54.6602ZM153.254 54.6602V53.8928H152.854L152.625 54.221L153.254 54.6602ZM47.1671 207.441H201.866V205.906H47.1671V207.441ZM202.634 206.674V179.279H201.099V206.674H202.634ZM201.866 178.512H163.46V180.046H201.866V178.512ZM163.101 178.601L158.535 181.018L159.253 182.374L163.819 179.957L163.101 178.601ZM158.894 180.929H93.6306V182.463H158.894V180.929ZM94.2644 182.129L142.339 111.762L141.072 110.897L92.9967 181.263L94.2644 182.129ZM140.938 111.329V192.439H142.473V111.329H140.938ZM141.058 192.027L139.178 194.981L140.472 195.805L142.352 192.851L141.058 192.027ZM139.058 195.393V242.663H140.593V195.393H139.058ZM139.825 243.43H172.323V241.895H139.825V243.43ZM173.09 242.663V54.6602H171.556V242.663H173.09ZM172.323 53.8928H153.254V55.4275H172.323V53.8928ZM152.625 54.221L46.5379 206.235L47.7963 207.112L153.883 55.0993L152.625 54.221ZM256.093 120.998L256.84 121.173L256.093 120.998ZM264.419 99.2436L263.766 98.84L263.762 98.8476L263.757 98.8545L264.419 99.2436ZM277.848 85.2777L278.252 85.9299L278.26 85.9246L278.268 85.9192L277.848 85.2777ZM312.494 85.2777L312.063 85.9123L312.076 85.9215L312.089 85.9299L312.494 85.2777ZM325.654 99.2436L324.992 99.6326L324.997 99.6395L325.001 99.6464L325.654 99.2436ZM334.248 120.998L334.996 120.823L334.248 120.998ZM334.248 176.325L334.996 176.5L334.248 176.325ZM325.654 198.079L325.001 197.676L324.997 197.683L324.992 197.69L325.654 198.079ZM312.494 212.314L312.909 212.959L312.914 212.955L312.494 212.314ZM277.848 212.314L277.427 212.955L277.435 212.961L277.443 212.966L277.848 212.314ZM264.419 198.079L263.757 198.468L263.762 198.475L263.766 198.482L264.419 198.079ZM256.093 176.325L256.84 176.15L256.093 176.325ZM231.116 199.691L230.408 199.988L230.411 199.995L231.116 199.691ZM256.899 233.531L256.443 234.149L256.448 234.152L256.899 233.531ZM333.443 233.531L332.992 232.91L332.987 232.913L333.443 233.531ZM359.226 199.691L358.518 199.394L359.226 199.691ZM359.226 97.6321L358.518 97.9291L359.226 97.6321ZM333.443 63.7917L332.987 64.4092L332.992 64.4127L333.443 63.7917ZM256.899 63.7917L256.448 63.1707L256.443 63.1742L256.899 63.7917ZM231.116 97.6321L230.411 97.3275L230.408 97.3352L231.116 97.6321ZM253.906 148.661C253.906 138.684 254.886 129.523 256.84 121.173L255.346 120.823C253.361 129.304 252.371 138.585 252.371 148.661H253.906ZM256.84 121.173C258.796 112.817 261.546 105.641 265.08 99.6326L263.757 98.8545C260.129 105.022 257.329 112.349 255.346 120.823L256.84 121.173ZM265.072 99.6464C268.78 93.6426 273.177 89.0799 278.252 85.9299L277.443 84.6254C272.134 87.9212 267.578 92.6689 263.766 98.84L265.072 99.6464ZM278.268 85.9192C283.334 82.6004 288.917 80.9421 295.036 80.9421V79.4074C288.622 79.4074 282.746 81.1509 277.427 84.6362L278.268 85.9192ZM295.036 80.9421C301.523 80.9421 307.188 82.605 312.063 85.9123L312.924 84.6431C307.772 81.1462 301.8 79.4074 295.036 79.4074V80.9421ZM312.089 85.9299C317.161 89.0776 321.465 93.635 324.992 99.6326L326.315 98.8545C322.681 92.6765 318.212 87.9235 312.898 84.6254L312.089 85.9299ZM325.001 99.6464C328.71 105.651 331.546 112.822 333.501 121.173L334.996 120.823C333.011 112.343 330.118 105.012 326.307 98.84L325.001 99.6464ZM333.501 121.173C335.455 129.523 336.435 138.684 336.435 148.661H337.97C337.97 138.585 336.98 129.304 334.996 120.823L333.501 121.173ZM336.435 148.661C336.435 158.639 335.455 167.8 333.501 176.15L334.996 176.5C336.98 168.019 337.97 158.738 337.97 148.661H336.435ZM333.501 176.15C331.546 184.501 328.71 191.672 325.001 197.676L326.307 198.482C330.118 192.311 333.011 184.98 334.996 176.5L333.501 176.15ZM324.992 197.69C321.463 203.69 317.154 208.343 312.073 211.672L312.914 212.955C318.218 209.481 322.683 204.643 326.315 198.468L324.992 197.69ZM312.079 211.668C307.203 214.803 301.531 216.381 295.036 216.381V217.915C301.791 217.915 307.758 216.27 312.909 212.959L312.079 211.668ZM295.036 216.381C288.909 216.381 283.32 214.807 278.252 211.661L277.443 212.966C282.76 216.266 288.631 217.915 295.036 217.915V216.381ZM278.268 211.672C273.183 208.34 268.782 203.682 265.072 197.676L263.766 198.482C267.576 204.651 272.127 209.484 277.427 212.955L278.268 211.672ZM265.08 197.69C261.546 191.682 258.796 184.506 256.84 176.15L255.346 176.5C257.329 184.974 260.129 192.301 263.757 198.468L265.08 197.69ZM256.84 176.15C254.886 167.8 253.906 158.639 253.906 148.661H252.371C252.371 158.738 253.361 168.019 255.346 176.5L256.84 176.15ZM221.217 148.661C221.217 168.256 224.272 185.371 230.408 199.988L231.823 199.394C225.783 185.004 222.751 168.099 222.751 148.661H221.217ZM230.411 199.995C236.723 214.602 245.395 225.999 256.443 234.149L257.355 232.913C246.558 224.949 238.042 213.785 231.82 199.386L230.411 199.995ZM256.448 234.152C267.686 242.309 280.558 246.384 295.036 246.384V244.85C280.866 244.85 268.313 240.868 257.349 232.91L256.448 234.152ZM295.036 246.384C309.869 246.384 322.833 242.311 333.898 234.149L332.987 232.913C322.208 240.865 309.569 244.85 295.036 244.85V246.384ZM333.893 234.152C345.124 226.001 353.8 214.601 359.933 199.988L358.518 199.394C352.477 213.786 343.964 224.947 332.992 232.91L333.893 234.152ZM359.933 199.988C366.069 185.371 369.125 168.256 369.125 148.661H367.59C367.59 168.099 364.558 185.004 358.518 199.394L359.933 199.988ZM369.125 148.661C369.125 129.067 366.069 111.952 359.933 97.3352L358.518 97.9291C364.558 112.319 367.59 129.223 367.59 148.661H369.125ZM359.933 97.3352C353.8 82.7216 345.124 71.3219 333.893 63.1707L332.992 64.4127C343.964 72.376 352.477 83.5366 358.518 97.9291L359.933 97.3352ZM333.898 63.1742C322.833 55.0115 309.869 50.9385 295.036 50.9385V52.4732C309.569 52.4732 322.208 56.4574 332.987 64.4092L333.898 63.1742ZM295.036 50.9385C280.558 50.9385 267.686 55.0139 256.448 63.1707L257.349 64.4127C268.313 56.455 280.866 52.4732 295.036 52.4732V50.9385ZM256.443 63.1742C245.395 71.3244 236.723 82.7209 230.411 97.3275L231.82 97.9368C238.042 83.5373 246.558 72.3735 257.355 64.4092L256.443 63.1742ZM230.408 97.3352C224.272 111.952 221.217 129.067 221.217 148.661H222.751C222.751 129.223 225.783 112.319 231.823 97.9291L230.408 97.3352ZM383.935 206.674L383.305 206.235L382.464 207.441H383.935V206.674ZM538.634 206.674V207.441H539.401V206.674H538.634ZM538.634 179.279H539.401V178.512H538.634V179.279ZM500.228 179.279V178.512H500.037L499.868 178.601L500.228 179.279ZM495.662 181.696V182.463H495.852L496.021 182.374L495.662 181.696ZM430.398 181.696L429.764 181.263L428.945 182.463H430.398V181.696ZM478.473 111.329H479.24V108.846L477.839 110.897L478.473 111.329ZM478.473 192.439L479.121 192.851L479.24 192.662V192.439H478.473ZM476.593 195.393L475.945 194.981L475.826 195.17V195.393H476.593ZM476.593 242.663H475.826V243.43H476.593V242.663ZM509.091 242.663V243.43H509.858V242.663H509.091ZM509.091 54.6602H509.858V53.8928H509.091V54.6602ZM490.022 54.6602V53.8928H489.621L489.393 54.221L490.022 54.6602ZM383.935 207.441H538.634V205.906H383.935V207.441ZM539.401 206.674V179.279H537.866V206.674H539.401ZM538.634 178.512H500.228V180.046H538.634V178.512ZM499.868 178.601L495.303 181.018L496.021 182.374L500.587 179.957L499.868 178.601ZM495.662 180.929H430.398V182.463H495.662V180.929ZM431.032 182.129L479.107 111.762L477.839 110.897L429.764 181.263L431.032 182.129ZM477.706 111.329V192.439H479.24V111.329H477.706ZM477.825 192.027L475.945 194.981L477.241 195.805L479.121 192.851L477.825 192.027ZM475.826 195.393V242.663H477.36V195.393H475.826ZM476.593 243.43H509.091V241.895H476.593V243.43ZM509.858 242.663V54.6602H508.323V242.663H509.858ZM509.091 53.8928H490.022V55.4275H509.091V53.8928ZM489.393 54.221L383.305 206.235L384.564 207.112L490.651 55.0993L489.393 54.221Z" fill="black"/>
<path d="M41.0273 202.84H195.726V175.445H157.32L152.754 177.862H87.4908L135.566 107.496V188.605L133.686 191.56V238.829H166.183V50.8264H147.114L41.0273 202.84ZM246.999 144.828C246.999 134.801 247.983 125.58 249.953 117.164C251.923 108.749 254.698 101.497 258.279 95.4098C262.039 89.3224 266.515 84.6668 271.708 81.4439C276.901 78.0422 282.63 76.341 288.897 76.341C295.521 76.341 301.341 78.0422 306.354 81.4439C311.547 84.6668 315.933 89.3224 319.514 95.4098C323.274 101.497 326.139 108.749 328.109 117.164C330.078 125.58 331.063 134.801 331.063 144.828C331.063 154.855 330.078 164.075 328.109 172.491C326.139 180.906 323.274 188.158 319.514 194.245C315.933 200.333 311.547 205.078 306.354 208.48C301.341 211.703 295.521 213.314 288.897 213.314C282.63 213.314 276.901 211.703 271.708 208.48C266.515 205.078 262.039 200.333 258.279 194.245C254.698 188.158 251.923 180.906 249.953 172.491C247.983 164.075 246.999 154.855 246.999 144.828ZM215.844 144.828C215.844 164.344 218.888 181.354 224.976 195.857C231.243 210.36 239.837 221.64 250.759 229.697C261.86 237.755 274.572 241.783 288.897 241.783C303.578 241.783 316.381 237.755 327.303 229.697C338.404 221.64 346.999 210.36 353.086 195.857C359.173 181.354 362.218 164.344 362.218 144.828C362.218 125.311 359.173 108.301 353.086 93.7984C346.999 79.2953 338.404 68.0152 327.303 59.9579C316.381 51.9007 303.578 47.8721 288.897 47.8721C274.572 47.8721 261.86 51.9007 250.759 59.9579C239.837 68.0152 231.243 79.2953 224.976 93.7984C218.888 108.301 215.844 125.311 215.844 144.828ZM377.795 202.84H532.494V175.445H494.088L489.522 177.862H424.258L472.333 107.496V188.605L470.453 191.56V238.829H502.951V50.8264H483.882L377.795 202.84Z" fill="black"/>
<path d="M7.36652 98.9879C11.1588 98.9879 14.2331 95.9137 14.2331 92.1214C14.2331 88.3291 11.1588 85.2549 7.36652 85.2549C3.57425 85.2549 0.5 88.3291 0.5 92.1214C0.5 95.9137 3.57425 98.9879 7.36652 98.9879Z" stroke="black"/>
<path d="M405.774 7.29763C407.576 7.29763 409.037 5.83692 409.037 4.03505C409.037 2.23317 407.576 0.772461 405.774 0.772461C403.972 0.772461 402.512 2.23317 402.512 4.03505C402.512 5.83692 403.972 7.29763 405.774 7.29763Z" fill="black"/>
<path d="M626.537 230.942C628.727 230.942 630.503 229.166 630.503 226.975C630.503 224.785 628.727 223.009 626.537 223.009C624.346 223.009 622.57 224.785 622.57 226.975C622.57 229.166 624.346 230.942 626.537 230.942Z" stroke="black"/>
</svg>
