<svg xmlns="http://www.w3.org/2000/svg" xmlns:xlink="http://www.w3.org/1999/xlink" width="32" height="32" viewBox="0 0 32 32">
  <defs>
    <linearGradient id="linear-gradient" x1="0.5" x2="0.169" y2="1" gradientUnits="objectBoundingBox">
      <stop offset="0" stop-color="#eecdeb"/>
      <stop offset="1" stop-color="#e364cb"/>
    </linearGradient>
    <linearGradient id="linear-gradient-2" x1="0.656" x2="0.339" y2="1" gradientUnits="objectBoundingBox">
      <stop offset="0" stop-color="#9181f4"/>
      <stop offset="1" stop-color="#5138ee"/>
    </linearGradient>
    <linearGradient id="linear-gradient-3" x1="-0.194" y1="0.392" x2="0.802" y2="0.724" gradientUnits="objectBoundingBox">
      <stop offset="0" stop-color="#fff" stop-opacity="0"/>
      <stop offset="0.288" stop-color="#656565" stop-opacity="0"/>
      <stop offset="0.353"/>
      <stop offset="0.653"/>
      <stop offset="0.719" stop-color="#858585" stop-opacity="0"/>
      <stop offset="1" stop-color="#fff" stop-opacity="0"/>
    </linearGradient>
  </defs>
  <g id="favicon" transform="translate(-7 -25)">
    <path id="Union_1" data-name="Union 1" d="M21.647,32,16,14.545,10.353,32H0L10.353,0H21.647L32,32Z" transform="translate(7 25)" fill="url(#linear-gradient)"/>
    <path id="Subtraction_2" data-name="Subtraction 2" d="M16,32a16,16,0,0,1-5.352-.913l2.9-8.971A6.589,6.589,0,0,0,22.588,16V0H32V16A16,16,0,0,1,16,32ZM2.43,24.488v0A15.931,15.931,0,0,1,0,16V0H9.41V2.913L2.431,24.486Z" transform="translate(7 25)" fill="url(#linear-gradient-2)"/>
    <path id="Subtraction_4" data-name="Subtraction 4" d="M16,32a16,16,0,0,1-5.352-.913l2.9-8.971A6.589,6.589,0,0,0,22.588,16V0H32V16A16,16,0,0,1,16,32ZM2.43,24.488v0A15.931,15.931,0,0,1,0,16V0H9.41V2.913L2.431,24.486Z" transform="translate(7 25)" opacity="0.26" fill="url(#linear-gradient-3)"/>
    <g id="Ellipse_1" data-name="Ellipse 1" transform="translate(16 35)" fill="rgba(255,255,255,0.5)" stroke="rgba(255,255,255,0.14)" stroke-width="1">
      <circle cx="7.5" cy="7.5" r="7.5" stroke="none"/>
      <circle cx="7.5" cy="7.5" r="7" fill="none"/>
    </g>
  </g>
</svg>
